<?xml version="1.0" standalone="no"?><svg xmlns="http://www.w3.org/2000/svg" viewBox="0 0 1440 320"><path fill="#0f9eb8" fill-opacity="1" d="M0,256L26.7,224C53.3,192,107,128,160,106.7C213.3,85,267,107,320,117.3C373.3,128,427,128,480,154.7C533.3,181,587,235,640,218.7C693.3,203,747,117,800,96C853.3,75,907,117,960,149.3C1013.3,181,1067,203,1120,192C1173.3,181,1227,139,1280,138.7C1333.3,139,1387,181,1413,202.7L1440,224L1440,0L1413.3,0C1386.7,0,1333,0,1280,0C1226.7,0,1173,0,1120,0C1066.7,0,1013,0,960,0C906.7,0,853,0,800,0C746.7,0,693,0,640,0C586.7,0,533,0,480,0C426.7,0,373,0,320,0C266.7,0,213,0,160,0C106.7,0,53,0,27,0L0,0Z"></path></svg>